<svg xmlns="http://www.w3.org/2000/svg" viewBox="0 0 3500 3500" shape-rendering="geometricPrecision" text-rendering="geometricPrecision" image-rendering="optimizeQuality" fill-rule="evenodd" clip-rule="evenodd"><path d="M380 250h2740c72 0 130 58 130 130v2740c0 72-58 130-130 130H380c-72 0-130-58-130-130V380c0-72 58-130 130-130zm1201 488c125 0 239 33 342 101s179 157 229 267c50-16 102-24 154-24 136 0 253 49 349 147 97 99 145 216 145 353s-48 255-145 353c-96 98-213 147-349 147h-219v-426c0-24-8-44-24-60-17-17-37-25-61-25h-511c-24 0-44 8-61 25-16 16-24 36-24 60v426h-379c-91 0-168-32-232-97-63-66-95-144-95-233 0-79 25-148 73-209 49-61 110-99 184-115-2-22-3-43-3-63 0-114 28-219 84-316 55-96 131-172 228-228 96-56 202-83 315-83zm38 1003h255c12 0 22 5 30 13 9 9 13 19 13 30v469h234c23 0 38 6 44 19 6 14 1 29-14 47l-380 416c-15 18-33 27-54 27-22 0-40-9-55-27l-380-416c-15-18-20-33-14-47 6-13 21-19 45-19h233v-469c0-11 5-21 13-30 9-8 18-13 30-13z" fill="#393"/></svg>