<svg id="Mode_Isolation" data-name="Mode Isolation" xmlns="http://www.w3.org/2000/svg" viewBox="0 0 128 128"><defs><style>.cls-1{fill:#e42829;}.cls-2{fill:#161815;}</style></defs><title>pre</title><polygon class="cls-1" points="0 0 23.26 0 23.26 104.74 128 104.74 128 128 0 128 0 0"/><polygon class="cls-1" points="48.58 0 128 0 128 79.44 104.75 79.44 104.75 23.27 48.58 23.27 48.58 0"/><path class="cls-2" d="M224.45,229.44H189V276h35.47V229.44m-6.25,39.65H195.48v-2.45H218.2Zm0-3.81H195.48v-2.45H218.2Zm0-3.81H195.48V259H218.2Zm-5.58-6.34H201.06l2.65-7.63H210Zm-1.33-12.81a4.52,4.52,0,1,1-4.52-4.52,4.52,4.52,0,0,1,4.52,4.52" transform="translate(-142.72 -189.31)"/></svg>