<svg id="Calque_2" data-name="Calque 2" xmlns="http://www.w3.org/2000/svg" viewBox="0 0 540 490.26"><defs><style>.cls-1{fill:#161815;}.cls-2{fill:#e42829;}</style></defs><title>logo</title><path class="cls-1" d="M283.16,1185.07a8.19,8.19,0,0,1,3.21,3.59,14,14,0,0,1,0,10.92,8.17,8.17,0,0,1-3.17,3.57,9.33,9.33,0,0,1-4.91,1.25H270l0-20.6h8.18a9.47,9.47,0,0,1,5,1.27M282,1199a8.1,8.1,0,0,0,1.26-4.86,8,8,0,0,0-1.29-4.87,4.52,4.52,0,0,0-3.81-1.7h-4.07l0,13.09h4.19A4.36,4.36,0,0,0,282,1199" transform="translate(-270 -714.98)"/><polygon class="cls-1" points="30.98 472.61 30.98 477.12 39.31 477.13 39.3 480.88 30.98 480.87 30.98 485.7 41.91 485.71 41.89 489.46 26.86 489.44 26.9 468.85 41.92 468.87 41.91 472.62 30.98 472.61"/><polygon class="cls-1" points="79.38 485.77 79.37 489.52 64.86 489.5 64.9 468.9 69 468.9 68.98 485.75 79.38 485.77"/><path class="cls-1" d="M359,1188.39a3.82,3.82,0,0,1-.71,2.35,6.59,6.59,0,0,1-2.22,1.75l-1.53-2.23a2.73,2.73,0,0,0,1.13-.8,1.61,1.61,0,0,0,.31-1v-.74h-1.15l0-3.84H359Z" transform="translate(-270 -714.98)"/><path class="cls-1" d="M383,1202.59a9.48,9.48,0,0,1-12.44,0q-2.18-2.34-2.17-6.67l0-12h4.11l0,12a6.25,6.25,0,0,0,1,4,4,4,0,0,0,3.28,1.26,3.91,3.91,0,0,0,3.24-1.25,6.38,6.38,0,0,0,1-4l0-12h4.1l0,12c0,2.89-.71,5.11-2.15,6.66" transform="translate(-270 -714.98)"/><polygon class="cls-1" points="141.96 469 141.93 489.6 138.44 489.59 129.08 476.22 129.06 489.58 125.17 489.58 125.2 468.98 128.69 468.99 138.07 482.36 138.09 469 141.96 469"/><rect class="cls-1" x="413.81" y="1192.23" width="20.6" height="4.14" transform="translate(-1040.66 902.08) rotate(-89.94)"/><polygon class="cls-1" points="183.51 469.06 176.35 489.65 171.75 489.64 164.87 469.04 169.14 469.04 174.1 484.13 179.31 469.05 183.51 469.06"/><polygon class="cls-1" points="196.11 472.83 196.11 477.33 204.44 477.35 204.42 481.1 196.1 481.09 196.1 485.92 207.03 485.94 207.02 489.69 191.99 489.66 192.03 469.07 207.05 469.09 207.04 472.84 196.11 472.83"/><path class="cls-1" d="M494.18,1197.16h-3.81v7.53h-4.1l0-20.6,9,0a7.92,7.92,0,0,1,5.39,1.71,6.16,6.16,0,0,1,1.92,4.8,6.45,6.45,0,0,1-1.09,3.79,6.36,6.36,0,0,1-3.11,2.24l4.68,8.06H498.6Zm-3.8-3.75H495a3.93,3.93,0,0,0,2.54-.7,2.57,2.57,0,0,0,.83-2.12,2.61,2.61,0,0,0-.76-2.09,3.57,3.57,0,0,0-2.37-.66h-4.9Z" transform="translate(-270 -714.98)"/><path class="cls-1" d="M515.48,1204.3a7,7,0,0,1-3.08-2.34,6.41,6.41,0,0,1-1.26-3.6h4.18a3.34,3.34,0,0,0,1.4,2.39,5.28,5.28,0,0,0,3.18.9,5.14,5.14,0,0,0,2.93-.74,2.38,2.38,0,0,0,1.08-2.07q0-1.9-2.7-2.52l-4.22-.91a8.21,8.21,0,0,1-4-2,4.6,4.6,0,0,1-1.4-3.48,5.48,5.48,0,0,1,1-3.25,6.28,6.28,0,0,1,2.77-2.2,10.32,10.32,0,0,1,4.2-.78,9.45,9.45,0,0,1,5.83,1.71,6.33,6.33,0,0,1,2.48,4.8h-4.16c-.19-2-1.56-3.06-4.1-3.06a5.15,5.15,0,0,0-2.78.65,2,2,0,0,0-1,1.81,1.72,1.72,0,0,0,.67,1.46,5.3,5.3,0,0,0,2.12.86l4.06.91q5.6,1.21,5.59,5.58a6.14,6.14,0,0,1-1,3.56,6.41,6.41,0,0,1-2.91,2.29,11.09,11.09,0,0,1-4.36.79,11.64,11.64,0,0,1-4.44-.81" transform="translate(-270 -714.98)"/><rect class="cls-1" x="529.37" y="1192.39" width="20.6" height="4.13" transform="translate(-925.39 1017.79) rotate(-89.94)"/><polygon class="cls-1" points="298.26 472.97 291.63 472.96 291.61 489.8 287.51 489.8 287.54 472.95 280.92 472.94 280.92 469.19 298.26 469.21 298.26 472.97"/><path class="cls-1" d="M581.41,1188v4.51h8.32v3.76H581.4v4.82l10.93,0,0,3.75-15,0,0-20.59,15,0V1188Zm5.78-5.65H583l3.85-4h5.77Z" transform="translate(-270 -714.98)"/><path class="cls-1" d="M631.7,1201.43a8.29,8.29,0,0,1-3.24,2.83,10.12,10.12,0,0,1-4.59,1,9.23,9.23,0,0,1-5-1.3,8.51,8.51,0,0,1-3.18-3.73,13.5,13.5,0,0,1-1.09-5.67,12.72,12.72,0,0,1,1.19-5.63,8.81,8.81,0,0,1,3.38-3.73,9.81,9.81,0,0,1,5.08-1.29,9.6,9.6,0,0,1,4.41,1,7.88,7.88,0,0,1,3.14,2.81,9.47,9.47,0,0,1,1.44,4.32h-4.19a4.6,4.6,0,0,0-5-4.37,4.58,4.58,0,0,0-3.94,1.77,10.6,10.6,0,0,0,0,10.3,4.65,4.65,0,0,0,3.94,1.79,5,5,0,0,0,3.35-1.1,4.88,4.88,0,0,0,1.57-3.29h4.16a9,9,0,0,1-1.47,4.31" transform="translate(-270 -714.98)"/><polygon class="cls-1" points="376.77 473.07 376.77 477.58 385.09 477.59 385.08 481.34 376.76 481.33 376.76 486.16 387.69 486.18 387.68 489.93 372.65 489.91 372.69 469.31 387.71 469.34 387.7 473.08 376.77 473.07"/><polygon class="cls-1" points="413.7 469.37 413.67 489.96 410.18 489.96 400.82 476.59 400.8 489.95 396.9 489.94 396.94 469.35 400.43 469.35 409.81 482.72 409.83 469.36 413.7 469.37"/><polygon class="cls-1" points="440.12 473.16 433.5 473.15 433.48 489.99 429.37 489.99 429.4 473.14 422.78 473.14 422.79 469.38 440.13 469.4 440.12 473.16"/><path class="cls-1" d="M727.07,1197.47h-3.81V1205h-4.1l0-20.6h9a7.87,7.87,0,0,1,5.39,1.72,6.13,6.13,0,0,1,1.92,4.79,6,6,0,0,1-4.2,6L736,1205h-4.48Zm-3.8-3.75h4.66a3.93,3.93,0,0,0,2.54-.69,3.19,3.19,0,0,0,.07-4.21,3.57,3.57,0,0,0-2.37-.67h-4.9Z" transform="translate(-270 -714.98)"/><path class="cls-1" d="M757.14,1199.92h-7.56l-1.83,5.12h-4.16l7.77-20.59h4.71l7,20.6h-4.31Zm-6.3-3.53H756l-2.43-7.62Z" transform="translate(-270 -714.98)"/><polygon class="cls-1" points="516.09 486.35 516.07 490.11 501.57 490.08 501.6 469.49 505.7 469.49 505.68 486.34 516.09 486.35"/><polygon class="cls-1" points="529.06 473.28 529.06 477.79 537.38 477.8 537.37 481.55 529.05 481.54 529.05 486.37 539.98 486.39 539.97 490.14 524.94 490.12 524.97 469.52 540 469.54 539.99 473.29 529.06 473.28"/><path class="cls-2" d="M390.44,1022.89a25.62,25.62,0,0,1-11-8.32,23.09,23.09,0,0,1-4.48-12.84l14.93,0a11.84,11.84,0,0,0,4.94,8.51c2.89,2.13,6.66,3.19,11.32,3.21,4.38,0,7.87-.88,10.44-2.65a8.47,8.47,0,0,0,3.87-7.36q0-6.78-9.59-9l-15-3.26q-9.28-2.1-14.29-6.91a16.43,16.43,0,0,1-5-12.42A20,20,0,0,1,380,960.31a22.68,22.68,0,0,1,9.87-7.82,37,37,0,0,1,15-2.8q12.74,0,20.76,6.14t8.86,17.08l-14.83,0q-1-10.86-14.6-10.88-6.27,0-9.91,2.29a7.24,7.24,0,0,0-3.67,6.46,6.25,6.25,0,0,0,2.4,5.22,19,19,0,0,0,7.51,3l14.5,3.26q19.92,4.31,19.9,19.86a22,22,0,0,1-3.66,12.67,22.85,22.85,0,0,1-10.34,8.18,39.87,39.87,0,0,1-15.56,2.8,41.26,41.26,0,0,1-15.81-2.89" transform="translate(-270 -714.98)"/><path class="cls-2" d="M486.64,1006.27l-26.93,0-6.49,18.26-14.82,0,27.66-73.34,16.79,0,25,73.4-15.35,0Zm-22.42-12.56,18.47,0-8.62-27.14Z" transform="translate(-270 -714.98)"/><polygon class="cls-2" points="296.25 296.3 296.24 309.65 244.58 309.59 244.68 236.22 259.29 236.24 259.2 296.25 296.25 296.3"/><path class="cls-2" d="M621.59,954.69A31.72,31.72,0,0,1,633.8,968a48.73,48.73,0,0,1-.06,40.12,31.84,31.84,0,0,1-12.24,13.25,34.76,34.76,0,0,1-18.21,4.66,35.4,35.4,0,0,1-18.26-4.66,31.11,31.11,0,0,1-12.24-13.27,48.67,48.67,0,0,1,.06-40.18,31.4,31.4,0,0,1,12.27-13.29,37.69,37.69,0,0,1,36.47.05m-32.89,15q-5.28,6.42-5.29,18.31c0,7.87,1.73,13.93,5.24,18.22s8.4,6.42,14.66,6.43,11-2.12,14.57-6.39,5.28-10.34,5.29-18.21-1.72-14-5.2-18.32-8.33-6.43-14.6-6.44-11.15,2.12-14.67,6.4" transform="translate(-270 -714.98)"/><polygon class="cls-2" points="437.86 236.48 437.76 309.85 425.34 309.83 392 262.19 391.94 309.78 378.07 309.77 378.17 236.4 390.59 236.42 424.02 284.05 424.08 236.46 437.86 236.48"/><path class="cls-1" d="M294.53,1054.42a13.11,13.11,0,0,1,5.16,5.77,22.48,22.48,0,0,1,0,17.51,13.1,13.1,0,0,1-5.09,5.73,14.8,14.8,0,0,1-7.88,2l-13.31,0,.05-33.06,13.12,0a15.2,15.2,0,0,1,7.94,2m-1.79,22.34c1.33-1.79,2-4.39,2-7.8s-.68-6-2.06-7.82a7.19,7.19,0,0,0-6.11-2.73H280l0,21,6.73,0a7,7,0,0,0,6-2.67" transform="translate(-270 -714.98)"/><polygon class="cls-1" points="43.75 343.46 43.74 350.71 57.1 350.73 57.1 356.75 43.74 356.73 43.73 364.48 61.26 364.51 61.25 370.53 37.14 370.49 37.18 337.44 61.3 337.47 61.29 343.49 43.75 343.46"/><polygon class="cls-1" points="132.15 399.56 132.13 413.67 77.57 413.6 77.66 336.11 93.1 336.13 93.01 399.51 132.15 399.56"/><path class="cls-1" d="M414,1062.53a14.35,14.35,0,0,1-2.67,8.81A25.42,25.42,0,0,1,403,1078l-5.72-8.39a10.56,10.56,0,0,0,4.24-3,6.1,6.1,0,0,0,1.18-3.68v-2.76h-4.31l0-14.44,15.65,0Z" transform="translate(-270 -714.98)"/><polygon class="cls-1" points="170.24 350.34 170.22 367.31 201.53 367.36 201.52 381.47 170.21 381.42 170.18 399.62 211.3 399.67 211.29 413.78 154.74 413.7 154.83 336.2 211.38 336.29 211.36 350.39 170.24 350.34"/><polygon class="cls-1" points="297.25 336.4 297.15 413.89 282.71 413.88 282.77 371.21 262.98 413.85 255.38 413.84 235.7 370.93 235.64 413.81 221.2 413.79 221.3 336.3 234.31 336.32 259.27 389.48 284.24 336.38 297.25 336.4"/><path class="cls-1" d="M628.59,1054.72a22.76,22.76,0,0,1,9.53,9.1,28.82,28.82,0,0,1-.2,27.12,23.53,23.53,0,0,1-9.94,9.19,33,33,0,0,1-15.05,3.23l-17.53,0,0,25.57-15.43,0,.1-77.49,33.84,0a31.3,31.3,0,0,1,14.71,3.27M622.37,1086a11.82,11.82,0,0,0,3.28-8.76,12,12,0,0,0-3-8.55q-3-3.14-8.82-3.15l-18.41,0,0,23.7,17.53,0q6.19,0,9.42-3.24" transform="translate(-270 -714.98)"/><polygon class="cls-1" points="435.27 399.97 435.27 414.08 380.7 414.01 380.8 336.51 396.23 336.53 396.14 399.92 435.27 399.97"/><path class="cls-1" d="M763.73,1055.17a33.65,33.65,0,0,1,12.88,14.07,46.87,46.87,0,0,1,4.53,21.23q0,12.13-4.59,21.16a33.49,33.49,0,0,1-12.92,14,36.75,36.75,0,0,1-19.24,4.94,37.51,37.51,0,0,1-19.28-4.93,33,33,0,0,1-13-14,51.53,51.53,0,0,1,.06-42.43,33.33,33.33,0,0,1,13-14,39.82,39.82,0,0,1,38.53,0M729,1071.06q-5.6,6.76-5.61,19.33t5.55,19.24q5.55,6.8,15.48,6.8t15.39-6.75q5.58-6.78,5.58-19.23t-5.47-19.35c-3.68-4.53-8.81-6.79-15.43-6.8s-11.79,2.24-15.49,6.76" transform="translate(-270 -714.98)"/><rect class="cls-1" x="761.2" y="1082.67" width="77.49" height="15.54" transform="translate(-561.72 1173.74) rotate(-89.91)"/><polygon class="cls-2" points="185.28 0 216.57 0 216.57 140.91 357.48 140.91 357.48 172.21 185.28 172.21 185.28 0"/><polygon class="cls-2" points="250.64 0 357.48 0 357.48 106.88 326.2 106.88 326.2 31.31 250.64 31.31 250.64 0"/><rect class="cls-1" x="271.06" y="54.85" width="31.43" height="31.43"/><rect class="cls-2" x="239.63" y="86.28" width="31.43" height="31.44"/><rect class="cls-2" x="2.01" y="442.01" width="536.52" height="4.47"/></svg>