<svg id="Mode_Isolation" data-name="Mode Isolation" xmlns="http://www.w3.org/2000/svg" viewBox="0 0 128 128"><defs><style>.cls-1{fill:#e42829;}.cls-2{fill:#161815;}</style></defs><title>pre</title><polygon class="cls-1" points="0 0 23.26 0 23.26 104.74 128 104.74 128 128 0 128 0 0"/><polygon class="cls-1" points="48.58 0 128 0 128 79.44 104.75 79.44 104.75 23.27 48.58 23.27 48.58 0"/><path class="cls-2" d="M413.34,248.8v5.32l-7.14-8.41v-2.46l17.42-6.87v1.43H434.9V226.54H423.62v5.22c0,.15,0,.29,0,.44s0,.3,0,.44V233l-17.42,6.87v-2H392.9v13.3h13.3v-1.53l7.14,8.43v19.64H442.2V248.8Zm7.8,13.2Zm14.55,0h0m-2.14,9.72H422l2.66-7.62h6.25Zm-1.33-12.81a4.52,4.52,0,1,1-4.52-4.51,4.52,4.52,0,0,1,4.52,4.51" transform="translate(-355.02 -189.31)"/></svg>