<svg id="Calque_2" data-name="Calque 2" xmlns="http://www.w3.org/2000/svg" viewBox="0 0 540 540"><defs><style>.cls-1{fill:#e42829;}</style></defs><title>visiteurs</title><polygon class="cls-1" points="0 0 98.14 0 98.14 441.86 540 441.86 540 540 0 540 0 0"/><polygon class="cls-1" points="204.96 0 540 0 540 335.14 441.92 335.14 441.92 98.19 204.96 98.19 204.96 0"/><circle cx="525.51" cy="1444.55" r="39.19" transform="translate(-770.48 -923.3) rotate(-22.61)"/><path d="M525.51,1497.14h0a72.7,72.7,0,0,0-72.7,72.7h0a19.08,19.08,0,0,0,19.08,19.08H579.13a19.08,19.08,0,0,0,19.08-19.08h0A72.7,72.7,0,0,0,525.51,1497.14Z" transform="translate(-255.51 -1236.36)"/></svg>